<mxfile host="app.diagrams.net" modified="2020-11-29T15:57:15.492Z" agent="5.0 (Macintosh; Intel Mac OS X 10_15_7) AppleWebKit/605.1.15 (KHTML, like Gecko) Version/14.0.1 Safari/605.1.15" etag="9HAUr0tPc65_N49UjrsE" version="13.9.9" type="github">
  <diagram id="2oSLAPwEhJk3amECYJ1j" name="第 1 页">
    <mxGraphModel dx="830" dy="745" grid="1" gridSize="10" guides="1" tooltips="1" connect="1" arrows="1" fold="1" page="1" pageScale="1" pageWidth="827" pageHeight="1169" math="0" shadow="0">
      <root>
        <mxCell id="0" />
        <mxCell id="1" parent="0" />
        <mxCell id="CdO6Y3lutExKnKdNgHZ1-1" value="&lt;sup&gt;&lt;font&gt;&lt;font&gt;&lt;font size=&quot;4&quot;&gt;(-1)&lt;/font&gt;&lt;sup&gt;&lt;font style=&quot;font-size: 12px&quot;&gt;0&lt;/font&gt;&lt;/sup&gt;&lt;font size=&quot;4&quot;&gt; x ( &lt;font color=&quot;#ff0000&quot;&gt;1&lt;/font&gt; + 0.1 ) x 2&lt;/font&gt;&lt;sup&gt;&lt;font style=&quot;font-size: 12px&quot;&gt;（126 - &lt;font color=&quot;#ff0000&quot;&gt;&lt;b&gt;127&lt;/b&gt;&lt;/font&gt;）&lt;/font&gt;&lt;/sup&gt;&lt;sup style=&quot;font-size: 18px&quot;&gt;&amp;nbsp;&lt;/sup&gt;&lt;/font&gt;&lt;br style=&quot;font-size: 18px&quot;&gt;&lt;/font&gt;&lt;/sup&gt;" style="rounded=0;whiteSpace=wrap;html=1;fontSize=18;fillColor=#fff2cc;gradientColor=#ffd966;strokeColor=none;fontStyle=0" vertex="1" parent="1">
          <mxGeometry x="120" y="470" width="485" height="60" as="geometry" />
        </mxCell>
        <mxCell id="CdO6Y3lutExKnKdNgHZ1-2" value="0" style="rounded=0;whiteSpace=wrap;html=1;fontSize=16;fillColor=#f8cecc;strokeColor=none;" vertex="1" parent="1">
          <mxGeometry x="115" y="290" width="90" height="60" as="geometry" />
        </mxCell>
        <mxCell id="CdO6Y3lutExKnKdNgHZ1-3" value="01111110" style="rounded=0;whiteSpace=wrap;html=1;fontSize=16;fillColor=#cce5ff;strokeColor=none;" vertex="1" parent="1">
          <mxGeometry x="205" y="290" width="150" height="60" as="geometry" />
        </mxCell>
        <mxCell id="CdO6Y3lutExKnKdNgHZ1-4" value="1 位符号" style="text;html=1;align=center;verticalAlign=middle;resizable=0;points=[];autosize=1;fontSize=16;" vertex="1" parent="1">
          <mxGeometry x="120.00000000000003" y="260" width="80" height="20" as="geometry" />
        </mxCell>
        <mxCell id="CdO6Y3lutExKnKdNgHZ1-5" value="10000000000000000000000" style="rounded=0;whiteSpace=wrap;html=1;fontSize=16;fillColor=#cdeb8b;strokeColor=none;" vertex="1" parent="1">
          <mxGeometry x="355" y="290" width="250" height="60" as="geometry" />
        </mxCell>
        <mxCell id="CdO6Y3lutExKnKdNgHZ1-6" value="8 位指数" style="text;html=1;align=center;verticalAlign=middle;resizable=0;points=[];autosize=1;fontSize=16;" vertex="1" parent="1">
          <mxGeometry x="250" y="260" width="80" height="20" as="geometry" />
        </mxCell>
        <mxCell id="CdO6Y3lutExKnKdNgHZ1-7" value="23 位尾数&lt;br&gt;" style="text;html=1;align=center;verticalAlign=middle;resizable=0;points=[];autosize=1;fontSize=16;" vertex="1" parent="1">
          <mxGeometry x="435" y="260" width="90" height="20" as="geometry" />
        </mxCell>
        <mxCell id="CdO6Y3lutExKnKdNgHZ1-8" value="0 表示正数" style="text;html=1;align=center;verticalAlign=middle;resizable=0;points=[];autosize=1;fontSize=18;" vertex="1" parent="1">
          <mxGeometry x="110" y="355" width="100" height="30" as="geometry" />
        </mxCell>
        <mxCell id="CdO6Y3lutExKnKdNgHZ1-9" value="转换十进制&lt;br&gt;后是 126" style="text;html=1;align=center;verticalAlign=middle;resizable=0;points=[];autosize=1;fontSize=18;" vertex="1" parent="1">
          <mxGeometry x="230" y="355" width="110" height="50" as="geometry" />
        </mxCell>
        <mxCell id="CdO6Y3lutExKnKdNgHZ1-10" value="表示的是1.以后的部分" style="text;html=1;align=center;verticalAlign=middle;resizable=0;points=[];autosize=1;fontSize=18;" vertex="1" parent="1">
          <mxGeometry x="395" y="355" width="190" height="30" as="geometry" />
        </mxCell>
        <mxCell id="CdO6Y3lutExKnKdNgHZ1-11" value="" style="shape=flexArrow;endArrow=classic;html=1;fontSize=18;" edge="1" parent="1">
          <mxGeometry width="50" height="50" relative="1" as="geometry">
            <mxPoint x="340.5" y="405" as="sourcePoint" />
            <mxPoint x="340" y="460" as="targetPoint" />
          </mxGeometry>
        </mxCell>
        <mxCell id="CdO6Y3lutExKnKdNgHZ1-12" value="1.1 x 2&lt;sup&gt;-1&amp;nbsp;&lt;/sup&gt;= &amp;nbsp;0.11&lt;sup&gt;&lt;br&gt;&lt;/sup&gt;" style="rounded=0;whiteSpace=wrap;html=1;fontSize=18;gradientColor=#ffd966;fillColor=#fff2cc;strokeColor=none;" vertex="1" parent="1">
          <mxGeometry x="120" y="620" width="475" height="60" as="geometry" />
        </mxCell>
        <mxCell id="CdO6Y3lutExKnKdNgHZ1-13" value="float &lt;br&gt;存储的数据" style="text;html=1;align=center;verticalAlign=middle;resizable=0;points=[];autosize=1;fontSize=18;" vertex="1" parent="1">
          <mxGeometry x="5" y="300" width="110" height="50" as="geometry" />
        </mxCell>
        <mxCell id="CdO6Y3lutExKnKdNgHZ1-14" value="转换公式" style="text;html=1;align=center;verticalAlign=middle;resizable=0;points=[];autosize=1;fontSize=18;" vertex="1" parent="1">
          <mxGeometry x="20" y="485" width="90" height="30" as="geometry" />
        </mxCell>
        <mxCell id="CdO6Y3lutExKnKdNgHZ1-15" value="二进制数" style="text;html=1;align=center;verticalAlign=middle;resizable=0;points=[];autosize=1;fontSize=18;" vertex="1" parent="1">
          <mxGeometry x="20" y="635" width="90" height="30" as="geometry" />
        </mxCell>
        <mxCell id="CdO6Y3lutExKnKdNgHZ1-16" value="1.5 x 2&lt;sup&gt;-1&amp;nbsp;&lt;/sup&gt;= 0.75" style="rounded=0;whiteSpace=wrap;html=1;fontSize=18;gradientColor=#ffd966;fillColor=#fff2cc;strokeColor=none;" vertex="1" parent="1">
          <mxGeometry x="120" y="760" width="475" height="60" as="geometry" />
        </mxCell>
        <mxCell id="CdO6Y3lutExKnKdNgHZ1-17" value="十进制数" style="text;html=1;align=center;verticalAlign=middle;resizable=0;points=[];autosize=1;fontSize=18;" vertex="1" parent="1">
          <mxGeometry x="25" y="775" width="90" height="30" as="geometry" />
        </mxCell>
        <mxCell id="CdO6Y3lutExKnKdNgHZ1-18" value="" style="shape=flexArrow;endArrow=classic;html=1;fontSize=18;" edge="1" parent="1">
          <mxGeometry width="50" height="50" relative="1" as="geometry">
            <mxPoint x="339.5" y="550" as="sourcePoint" />
            <mxPoint x="339" y="605" as="targetPoint" />
          </mxGeometry>
        </mxCell>
        <mxCell id="CdO6Y3lutExKnKdNgHZ1-19" value="" style="shape=flexArrow;endArrow=classic;html=1;fontSize=18;" edge="1" parent="1">
          <mxGeometry width="50" height="50" relative="1" as="geometry">
            <mxPoint x="340.5" y="700" as="sourcePoint" />
            <mxPoint x="340" y="755" as="targetPoint" />
          </mxGeometry>
        </mxCell>
      </root>
    </mxGraphModel>
  </diagram>
</mxfile>
